<?xml version="1.0" encoding="iso-8859-1"?>
<!-- Generator: Adobe Illustrator 19.0.0, SVG Export Plug-In . SVG Version: 6.00 Build 0)  -->
<svg version="1.1" id="Layer_1" xmlns="http://www.w3.org/2000/svg" xmlns:xlink="http://www.w3.org/1999/xlink" x="0px" y="0px"
	 viewBox="0 0 512.001 512.001" style="enable-background:new 0 0 512.001 512.001;" xml:space="preserve">
<circle style="fill:#F1F4FB;" cx="309.086" cy="211.763" r="150.391"/>
<path style="fill:#B4E66E;" d="M415.036,404.046l-88.568-49.818c-10.373-5.834-23.361-4.051-31.778,4.365l-31.101,31.101
	c-9.29,9.29-23.995,10.475-34.54,2.64c-21.26-15.798-42.632-34.185-63.338-54.892s-39.094-42.078-54.892-63.338
	c-7.836-10.545-6.65-25.25,2.64-34.54l31.101-31.101c8.415-8.415,10.2-21.404,4.365-31.778L99.107,88.117
	c-8.511-15.132-29.395-17.491-42.128-4.757l-32.803,32.803c-42.75,42.75,3.815,158.623,104.003,258.812
	s216.063,146.753,258.812,104.003l32.803-32.803C432.527,433.442,430.169,412.558,415.036,404.046z"/>
<g>
	<path style="fill:#A0D755;" d="M121.925,231.099l22.637-22.637c8.415-8.415,10.2-21.404,4.365-31.778L99.107,88.117
		c-8.511-15.132-29.395-17.491-42.128-4.757l-10.12,10.12L121.925,231.099z"/>
	<path style="fill:#A0D755;" d="M272.054,381.229l22.637-22.637c8.415-8.415,21.404-10.2,31.778-4.365l88.568,49.818
		c15.132,8.511,17.491,29.395,4.757,42.128l-10.12,10.12L272.054,381.229z"/>
</g>
<path d="M419.102,396.818l-88.568-49.819c-13.557-7.626-30.708-5.27-41.708,5.729l-31.101,31.101
	c-6.371,6.371-16.571,7.165-23.729,1.847c-21.488-15.966-42.489-34.167-62.421-54.099c-19.931-19.931-38.132-40.933-54.099-62.421
	c-5.318-7.157-4.524-17.358,1.847-23.729l31.101-31.101c11-11,13.356-28.151,5.729-41.708l-49.818-88.568
	c-5.219-9.279-14.31-15.438-24.943-16.899c-11.141-1.53-22.176,2.239-30.278,10.344l-32.803,32.803
	C-4.862,133.472-6.08,174.96,14.881,227.121c20.051,49.898,58.206,104.49,107.434,153.718
	c49.229,49.23,103.821,87.384,153.718,107.434c24.708,9.929,47.018,14.881,66.124,14.881c21.228,0,38.501-6.115,50.698-18.312
	l32.803-32.803c8.103-8.103,11.873-19.139,10.344-30.278C434.541,411.128,428.381,402.036,419.102,396.818z M413.929,440.311
	l-5.733,5.731l-75.506-41.185c-4.022-2.196-9.059-0.712-11.252,3.31c-2.194,4.021-0.712,9.059,3.31,11.252l71.223,38.849
	l-14.846,14.846c-17.915,17.914-53.966,17.829-98.909-0.23c-47.869-19.237-100.491-56.09-148.174-103.773
	S49.507,268.805,30.271,220.936c-18.06-44.945-18.144-80.995-0.23-98.909l14.843-14.846l7.94,14.556
	c1.506,2.76,4.351,4.324,7.288,4.324c1.341,0,2.703-0.326,3.963-1.014c4.021-2.194,5.504-7.232,3.31-11.253L57.112,94.956
	l5.731-5.731c3.768-3.766,8.66-5.815,13.723-5.815c0.853,0,1.712,0.059,2.57,0.176c5.445,0.748,10.091,3.881,12.743,8.598
	l49.818,88.568c3.994,7.102,2.761,16.085-3.001,21.846l-14.799,14.8L85.06,146.196c-2.193-4.021-7.231-5.504-11.252-3.31
	c-4.021,2.193-5.504,7.231-3.31,11.252l41.174,75.484l-4.076,4.076c-12.144,12.144-13.619,31.641-3.432,45.351
	c16.448,22.135,35.182,43.755,55.683,64.257c20.502,20.502,42.122,39.237,64.257,55.683c13.709,10.188,33.205,8.712,45.351-3.432
	l4.076-4.076l18.834,10.273c1.262,0.689,2.622,1.014,3.963,1.014c2.937,0,5.782-1.564,7.288-4.324
	c2.194-4.021,0.712-9.059-3.31-11.252l-14.551-7.938l14.799-14.799c5.761-5.761,14.745-6.995,21.848-3.001l88.568,49.818
	c4.716,2.653,7.85,7.298,8.598,12.743C420.386,429.97,418.33,435.909,413.929,440.311z"/>
<path d="M337.421,141.742c-4.473-0.995-8.901,1.826-9.895,6.297l-17.693,79.619c-0.546,2.456,0.052,5.026,1.627,6.989
	c1.574,1.962,3.953,3.104,6.469,3.104h53.632v27.092c0,4.58,3.713,8.294,8.294,8.294s8.294-3.713,8.294-8.294V237.75h9.399
	c4.58,0,8.294-3.713,8.294-8.294c0-4.58-3.713-8.294-8.294-8.294h-9.399v-71.325c0-4.58-3.713-8.294-8.294-8.294
	s-8.294,3.713-8.294,8.294v71.325h-43.293l15.45-69.526C344.712,147.166,341.893,142.735,337.421,141.742z"/>
<path d="M250.949,218.409c-18.104,9.88-38.625,21.079-38.625,46.433c0,4.58,3.713,8.294,8.294,8.294h70.772
	c4.58,0,8.294-3.713,8.294-8.294c0-4.58-3.713-8.294-8.294-8.294h-61.039c3.608-9.501,13.818-15.543,28.544-23.579
	c18.173-9.917,40.789-22.259,40.789-50.274c0-22.691-19.595-41.152-43.68-41.152c-24.085,0-43.68,18.46-43.68,41.152
	c0,4.58,3.713,8.294,8.294,8.294c4.58,0,8.294-3.713,8.294-8.294c0-13.545,12.154-24.565,27.092-24.565
	c14.938,0,27.092,11.019,27.092,24.565C283.096,199.644,270.952,207.494,250.949,218.409z"/>
<path d="M466.694,354.022l-16.152,3.23c39.25-38.12,61.458-90.257,61.458-145.489C512,99.875,420.972,8.846,309.083,8.846
	c-65.942,0-128.006,32.23-166.02,86.216c-2.637,3.745-1.739,8.92,2.006,11.557c3.744,2.637,8.918,1.739,11.556-2.006
	c34.913-49.58,91.906-79.18,152.459-79.18c102.742,0,186.33,83.587,186.33,186.33c0,51.459-21.008,99.983-58.043,135.117
	l3.698-18.486c0.898-4.492-2.015-8.861-6.507-9.759c-4.491-0.899-8.861,2.015-9.759,6.507l-8.846,44.233
	c-0.544,2.719,0.307,5.53,2.268,7.491c1.57,1.57,3.687,2.429,5.864,2.429c0.541,0,1.085-0.053,1.627-0.161l44.233-8.846
	c4.492-0.899,7.405-5.268,6.507-9.759C475.554,356.037,471.184,353.126,466.694,354.022z"/>
<path d="M309.083,44.232c-4.58,0-8.294,3.713-8.294,8.294v17.693c0,4.58,3.713,8.294,8.294,8.294c4.58,0,8.294-3.713,8.294-8.294
	V52.526C317.376,47.946,313.664,44.232,309.083,44.232z"/>
<path d="M442.333,211.763c0,4.58,3.713,8.294,8.294,8.294h17.693c4.58,0,8.294-3.713,8.294-8.294c0-4.58-3.713-8.294-8.294-8.294
	h-17.693C446.047,203.47,442.333,207.183,442.333,211.763z"/>
<path d="M167.033,139.327l15.322,8.847c1.306,0.754,2.732,1.112,4.139,1.112c2.866,0,5.654-1.488,7.19-4.148
	c2.29-3.967,0.931-9.039-3.035-11.329l-15.322-8.847c-3.968-2.291-9.039-0.931-11.329,3.035
	C161.707,131.964,163.066,137.037,167.033,139.327z"/>
<path d="M427.518,289.718l15.322,8.847c1.306,0.754,2.732,1.112,4.139,1.112c2.866,0,5.654-1.488,7.19-4.148
	c2.29-3.967,0.931-9.039-3.035-11.329l-15.322-8.846c-3.967-2.291-9.039-0.931-11.329,3.035
	C422.192,282.355,423.55,287.428,427.518,289.718z"/>
<path d="M379.848,97.477c2.866,0,5.654-1.488,7.19-4.148l8.847-15.322c2.29-3.967,0.931-9.039-3.035-11.329
	c-3.967-2.291-9.039-0.931-11.329,3.035l-8.847,15.322c-2.29,3.967-0.931,9.039,3.035,11.329
	C377.015,97.119,378.44,97.477,379.848,97.477z"/>
<path d="M231.128,330.197l-8.847,15.322c-2.29,3.967-0.931,9.039,3.035,11.329c1.306,0.754,2.732,1.112,4.139,1.112
	c2.866,0,5.654-1.488,7.19-4.148l8.847-15.322c2.29-3.967,0.931-9.039-3.035-11.329
	C238.491,324.871,233.419,326.231,231.128,330.197z"/>
<path d="M442.84,124.962l-15.322,8.847c-3.967,2.29-5.326,7.363-3.035,11.329c1.536,2.661,4.324,4.148,7.19,4.148
	c1.407,0,2.833-0.358,4.139-1.112l15.322-8.847c3.967-2.29,5.326-7.363,3.035-11.329
	C451.879,124.031,446.805,122.672,442.84,124.962z"/>
<path d="M163.997,295.529c1.536,2.661,4.324,4.148,7.19,4.148c1.407,0,2.833-0.358,4.139-1.112l15.322-8.847
	c3.967-2.29,5.326-7.363,3.035-11.329c-2.29-3.967-7.363-5.327-11.329-3.035l-15.322,8.846
	C163.066,286.49,161.707,291.562,163.997,295.529z"/>
<path d="M238.318,97.477c1.407,0,2.833-0.358,4.139-1.112c3.967-2.29,5.326-7.363,3.035-11.329l-8.847-15.322
	c-2.29-3.968-7.363-5.327-11.329-3.035c-3.967,2.29-5.326,7.363-3.035,11.329l8.847,15.322
	C232.665,95.99,235.453,97.477,238.318,97.477z"/>
<path d="M375.708,327.162c-3.967,2.29-5.326,7.363-3.035,11.329l8.846,15.322c1.536,2.661,4.324,4.148,7.19,4.148
	c1.407,0,2.833-0.358,4.139-1.112c3.967-2.29,5.326-7.362,3.035-11.329l-8.847-15.322
	C384.747,326.231,379.674,324.872,375.708,327.162z"/>
<g>
</g>
<g>
</g>
<g>
</g>
<g>
</g>
<g>
</g>
<g>
</g>
<g>
</g>
<g>
</g>
<g>
</g>
<g>
</g>
<g>
</g>
<g>
</g>
<g>
</g>
<g>
</g>
<g>
</g>
</svg>
