<?xml version="1.0" encoding="iso-8859-1"?>
<!-- Generator: Adobe Illustrator 19.0.0, SVG Export Plug-In . SVG Version: 6.00 Build 0)  -->
<svg version="1.1" id="Layer_1" xmlns="http://www.w3.org/2000/svg" xmlns:xlink="http://www.w3.org/1999/xlink" x="0px" y="0px"
	 viewBox="0 0 512 512" style="enable-background:new 0 0 512 512;" xml:space="preserve">
<path style="fill:#9B735A;" d="M354.338,42.221H80.701c-14.168,0-25.653,11.485-25.653,25.653v359.148
	c0,14.168,11.485,25.653,25.653,25.653h273.637c14.168,0,25.653-11.485,25.653-25.653V67.875
	C379.992,53.707,368.506,42.221,354.338,42.221z"/>
<rect x="89.253" y="76.426" style="fill:#F1F4FB;" width="256.534" height="342.046"/>
<path style="fill:#E4EAF8;" d="M345.787,409.921v-99.519c-49.005,11.598-85.512,55.522-85.512,108.07h76.96
	C341.958,418.472,345.787,414.643,345.787,409.921z"/>
<path style="fill:#FFF082;" d="M268.827,25.119h-21.846c-5.925-10.181-16.833-17.102-29.461-17.102s-23.536,6.921-29.461,17.102
	h-21.846c-9.446,0-17.102,7.656-17.102,17.102v34.205h136.818V42.221C285.929,32.775,278.273,25.119,268.827,25.119z"/>
<circle style="fill:#B4E66E;" cx="371.441" cy="418.472" r="85.511"/>
<path style="fill:#A0D755;" d="M414.196,486.881c-47.227,0-85.512-38.285-85.512-85.511c0-27.726,13.254-52.297,33.708-67.921
	c-42.971,4.521-76.463,40.854-76.463,85.023c0,47.227,38.285,85.511,85.512,85.511c19.501,0,37.418-6.601,51.804-17.591
	C420.27,486.706,417.253,486.881,414.196,486.881z"/>
<path d="M251.724,444.66H80.701c-9.725,0-17.637-7.912-17.637-17.637V67.875c0-9.725,7.912-17.637,17.637-17.637h60.394v26.188
	c0,4.427,3.589,8.017,8.017,8.017H285.93c4.427,0,8.017-3.589,8.017-8.017V50.238h60.391c9.725,0,17.637,7.912,17.637,17.637
	v230.881c0,4.427,3.589,8.017,8.017,8.017c4.427,0,8.017-3.589,8.017-8.017V67.875c0-18.566-15.105-33.67-33.67-33.67h-61.71
	c-3.354-9.93-12.752-17.102-23.8-17.102h-17.547C243.359,6.451,230.813,0,217.521,0c-13.292,0-25.839,6.451-33.76,17.102h-17.547
	c-11.048,0-20.446,7.172-23.8,17.102H80.701c-18.566,0-33.67,15.105-33.67,33.67v359.148c0,18.566,15.105,33.67,33.67,33.67h171.023
	c4.427,0,8.017-3.589,8.017-8.017C259.741,448.249,256.152,444.66,251.724,444.66z M166.214,33.136h21.846
	c2.854,0,5.493-1.517,6.929-3.985c4.781-8.213,13.204-13.117,22.532-13.117c9.328,0,17.751,4.904,22.532,13.117
	c1.436,2.467,4.075,3.985,6.929,3.985h21.846c4.999,0,9.067,4.059,9.085,9.055c0,0.011-0.001,0.02-0.001,0.031
	c0,0.021,0.003,0.041,0.003,0.062v26.126H157.129V42.252c0-0.011,0.001-0.02,0.001-0.031c0-0.005-0.001-0.011-0.001-0.015
	C157.138,37.203,161.209,33.136,166.214,33.136z"/>
<path d="M114.909,84.443c4.427,0,8.017-3.589,8.017-8.017s-3.589-8.017-8.017-8.017H89.253c-4.427,0-8.017,3.589-8.017,8.017
	v342.046c0,4.427,3.589,8.017,8.017,8.017h162.47c4.427,0,8.017-3.589,8.017-8.017c0-4.427-3.589-8.017-8.017-8.017H97.269V84.443
	H114.909z"/>
<path d="M345.787,306.77c4.427,0,8.017-3.589,8.017-8.017V76.426c0-4.427-3.589-8.017-8.017-8.017h-25.653
	c-4.427,0-8.017,3.589-8.017,8.017s3.589,8.017,8.017,8.017h17.637v214.311C337.77,303.181,341.36,306.77,345.787,306.77z"/>
<path d="M371.441,324.944c-51.572,0-93.528,41.956-93.528,93.528S319.869,512,371.441,512s93.528-41.956,93.528-93.528
	S423.012,324.944,371.441,324.944z M371.441,495.967c-42.731,0-77.495-34.764-77.495-77.495s34.764-77.495,77.495-77.495
	s77.495,34.764,77.495,77.495S414.172,495.967,371.441,495.967z"/>
<path d="M217.607,50.238c4.427,0,8.017-3.589,8.017-8.017s-3.589-8.017-8.017-8.017h-0.086c-4.427,0-7.974,3.589-7.974,8.017
	S213.179,50.238,217.607,50.238z"/>
<path d="M408.528,387.15l-54.19,54.19l-28.536-28.536c-3.131-3.131-8.207-3.131-11.337,0c-3.131,3.131-3.131,8.207,0,11.337
	l34.205,34.205c1.565,1.565,3.617,2.348,5.668,2.348c2.051,0,4.103-0.782,5.668-2.348l59.858-59.858
	c3.131-3.131,3.131-8.207,0-11.337C416.735,384.019,411.658,384.019,408.528,387.15z"/>
<path d="M216.985,209.77c0-20.074-18.829-27.788-34.205-32.461v-32.338c11.295,1.934,18.171,7.687,18.171,11.889
	c0,4.427,3.589,8.017,8.017,8.017s8.017-3.589,8.017-8.017c0-14.171-14.492-25.621-34.205-28.092v-1.036
	c0-4.427-3.589-8.017-8.017-8.017s-8.017,3.589-8.017,8.017v1.036c-19.713,2.47-34.205,13.92-34.205,28.092
	c0,20.074,18.829,27.788,34.205,32.461v32.338c-11.295-1.934-18.171-7.687-18.171-11.889c0-4.427-3.589-8.017-8.017-8.017
	c-4.427,0-8.017,3.589-8.017,8.017c0,14.171,14.492,25.621,34.205,28.092v1.036c0,4.427,3.589,8.017,8.017,8.017
	s8.017-3.589,8.017-8.017v-1.036C202.493,235.392,216.985,223.942,216.985,209.77z M200.952,209.77c0,2.535-2.236,5.335-6.134,7.68
	c-3.294,1.982-7.473,3.415-12.037,4.198v-27.429C196.304,198.932,200.952,203.182,200.952,209.77z M148.576,156.86
	c0-2.535,2.236-5.335,6.134-7.68c3.294-1.982,7.473-3.415,12.037-4.198v27.429C153.224,167.699,148.576,163.449,148.576,156.86z"/>
<path d="M294.48,136.818h-42.756c-4.427,0-8.017,3.589-8.017,8.017c0,4.427,3.589,8.017,8.017,8.017h42.756
	c4.427,0,8.017-3.589,8.017-8.017C302.497,140.408,298.908,136.818,294.48,136.818z"/>
<path d="M251.724,187.056h25.653c4.427,0,8.017-3.589,8.017-8.017s-3.589-8.017-8.017-8.017h-25.653
	c-4.427,0-8.017,3.589-8.017,8.017S247.297,187.056,251.724,187.056z"/>
<path d="M294.48,205.228h-42.756c-4.427,0-8.017,3.589-8.017,8.017s3.589,8.017,8.017,8.017h42.756c4.427,0,8.017-3.589,8.017-8.017
	S298.908,205.228,294.48,205.228z"/>
<path d="M140.56,298.221h17.102c4.427,0,8.017-3.589,8.017-8.017c0-4.427-3.589-8.017-8.017-8.017H140.56
	c-4.427,0-8.017,3.589-8.017,8.017C132.543,294.632,136.132,298.221,140.56,298.221z"/>
<path d="M140.56,366.63h17.102c4.427,0,8.017-3.589,8.017-8.017c0-4.427-3.589-8.017-8.017-8.017H140.56
	c-4.427,0-8.017,3.589-8.017,8.017C132.543,363.041,136.132,366.63,140.56,366.63z"/>
<path d="M140.56,332.426h17.102c4.427,0,8.017-3.589,8.017-8.017c0-4.427-3.589-8.017-8.017-8.017H140.56
	c-4.427,0-8.017,3.589-8.017,8.017C132.543,328.837,136.132,332.426,140.56,332.426z"/>
<path d="M294.48,282.188H191.866c-4.427,0-8.017,3.589-8.017,8.017c0,4.427,3.589,8.017,8.017,8.017H294.48
	c4.427,0,8.017-3.589,8.017-8.017C302.497,285.777,298.908,282.188,294.48,282.188z"/>
<path d="M268.827,350.597h-76.96c-4.427,0-8.017,3.589-8.017,8.017c0,4.427,3.589,8.017,8.017,8.017h76.96
	c4.427,0,8.017-3.589,8.017-8.017C276.843,354.186,273.254,350.597,268.827,350.597z"/>
<path d="M294.48,316.392H191.866c-4.427,0-8.017,3.589-8.017,8.017c0,4.427,3.589,8.017,8.017,8.017H294.48
	c4.427,0,8.017-3.589,8.017-8.017C302.497,319.982,298.908,316.392,294.48,316.392z"/>
<g>
</g>
<g>
</g>
<g>
</g>
<g>
</g>
<g>
</g>
<g>
</g>
<g>
</g>
<g>
</g>
<g>
</g>
<g>
</g>
<g>
</g>
<g>
</g>
<g>
</g>
<g>
</g>
<g>
</g>
</svg>
